<svg width="1752" height="1082" viewBox="0 0 1752 1082" fill="none" xmlns="http://www.w3.org/2000/svg">
<g opacity="0.2">
<path d="M1244.55 791.901C1244.55 803.113 1265.52 818.584 1280.1 818.584C1299.98 818.584 1314.79 809.61 1324.24 798.014C1337.93 781.201 1340.16 767.743 1340.11 754.333C1339.99 720.162 1318.16 695.779 1288.49 681.748C1265.08 670.689 1241.42 670.555 1241.18 670.555C1178.05 670.555 1131.78 696.993 1103.64 749.121C1082.56 788.193 1081.59 825.408 1081.59 828.385C1081.6 906.311 1103.02 967.689 1148.2 1010.97C1224.33 1083.88 1339.02 1079.81 1340.16 1079.76C1435.94 1076.77 1517.06 1053.28 1581.33 1009.97C1632.7 975.336 1673.5 928.005 1702.58 869.271C1752.21 769.086 1750.5 669.127 1750.48 668.128C1744.77 539.354 1714.62 425.67 1660.86 330.298C1615.17 249.235 1552.27 180.897 1473.91 127.193C1338.71 34.5219 1180.56 1.5 1077.63 1.5C940.715 1.5 818.089 21.4651 702.759 62.5349C527.899 124.815 374.791 234.989 247.691 390.01C107.415 561.099 45.0914 729.203 22.1518 862.398C-0.787773 995.592 1.53388 1080.59 1.59016 1081.5" stroke="#E63A45" stroke-width="3"/>
<path d="M1081.59 1.50049V820.41" stroke="#E63A45" stroke-width="3"/>
<path d="M1081.59 670.5H1750.59" stroke="#E63A45" stroke-width="3"/>
<rect x="1340.59" y="818.5" width="259" height="148" transform="rotate(180 1340.59 818.5)" stroke="#E63A45" stroke-width="3"/>
<rect x="1340.59" y="818.5" width="96" height="148" transform="rotate(180 1340.59 818.5)" stroke="#E63A45" stroke-width="3"/>
<rect x="1340.59" y="757.5" width="96" height="87" transform="rotate(180 1340.59 757.5)" stroke="#E63A45" stroke-width="3"/>
<rect width="37" height="61" transform="matrix(-1 0 0 1 1281.59 757.5)" stroke="#E63A45" stroke-width="3"/>
<rect width="37" height="31" transform="matrix(-1 0 0 1 1281.59 757.5)" stroke="#E63A45" stroke-width="3"/>
<path d="M1081.59 670.5H1340.59V1081.5" stroke="#E63A45" stroke-width="3"/>
</g>
</svg>
