<svg width="1401" height="1080" viewBox="0 0 1401 1080" fill="none" xmlns="http://www.w3.org/2000/svg">
<g opacity="0.2">
<path d="M893.046 791.401C893.046 802.613 914.019 818.084 928.604 818.084C948.479 818.084 963.287 809.11 972.737 797.514C986.434 780.701 988.657 767.243 988.61 753.833C988.49 719.662 966.656 695.279 936.986 681.248C913.58 670.189 889.922 670.055 889.683 670.055C826.552 670.055 780.276 696.493 752.143 748.621C731.06 787.693 730.09 824.908 730.09 827.885C730.097 905.811 751.524 967.189 796.702 1010.47C872.827 1083.38 987.517 1079.31 988.657 1079.26C1084.44 1076.27 1165.56 1052.78 1229.83 1009.47C1281.2 974.836 1322 927.505 1351.08 868.771C1400.71 768.586 1399 668.627 1398.98 667.628C1393.27 538.854 1363.12 425.17 1309.36 329.798C1263.67 248.735 1200.77 180.397 1122.41 126.693C987.215 34.0219 829.056 1 726.128 1C589.215 1 466.589 20.9651 351.259 62.0349C176.399 124.315 23.291 234.489 -103.809 389.51C-244.085 560.599 -306.409 728.703 -329.348 861.898C-352.288 995.092 -349.966 1080.09 -349.91 1081" stroke="#E63A45" stroke-width="3"/>
<path d="M730.09 1.00049V1081" stroke="#E63A45" stroke-width="3"/>
<path d="M730.09 670H1399.09" stroke="#E63A45" stroke-width="3"/>
<rect x="989.09" y="818" width="259" height="148" transform="rotate(180 989.09 818)" stroke="#E63A45" stroke-width="3"/>
<rect x="989.09" y="818" width="96" height="148" transform="rotate(180 989.09 818)" stroke="#E63A45" stroke-width="3"/>
<rect x="989.09" y="757" width="96" height="87" transform="rotate(180 989.09 757)" stroke="#E63A45" stroke-width="3"/>
<rect width="37" height="61" transform="matrix(-1 0 0 1 930.09 757)" stroke="#E63A45" stroke-width="3"/>
<rect width="37" height="31" transform="matrix(-1 0 0 1 930.09 757)" stroke="#E63A45" stroke-width="3"/>
<path d="M730.09 1081V670H989.09V1081" stroke="#E63A45" stroke-width="3"/>
</g>
</svg>
