<svg width="134" height="134" viewBox="0 0 134 134" fill="none" xmlns="http://www.w3.org/2000/svg">
<rect width="133.148" height="133.148" fill="#E63A45"/>
<path d="M56.3037 29.4465C63.5416 29.4465 68.8773 31.0337 72.4971 34.0872C76.0543 37.2632 77.8329 42.5145 77.833 49.9026C77.833 53.8726 77.2203 57.2921 75.9316 60.1018C74.6438 62.9107 72.19 65.1701 68.5713 66.8186V67.0022C71.0246 67.5517 73.0494 68.6506 74.6436 70.2991C76.2386 71.9485 77.0965 74.0854 77.2197 76.6506C77.3421 78.1774 77.4645 80.0092 77.5869 82.2073C77.6485 84.4063 77.5264 91.6719 77.5264 93.0159C77.5264 95.9465 78.0788 98.7562 79.1826 101.321C79.6122 102.359 80.4092 103.702 80.4092 103.702H61.5166C61.2103 102.971 61.0267 102.237 60.8428 101.566C60.6588 100.894 60.5354 100.161 60.4746 99.428C60.2906 96.1309 60.2909 93.016 60.3525 90.0852C60.4133 87.1537 60.2905 84.528 60.0449 82.2073C59.7386 79.8875 59.2479 78.0547 58.3896 76.6506C57.5305 75.3071 56.058 74.5127 54.0342 74.3909H48.208V103.702H30.7266V29.4465H56.3037ZM99.1172 78.0559C100.744 78.0559 102.309 78.3652 103.812 78.9846C105.315 79.6048 106.641 80.4872 107.792 81.6331C108.941 82.778 109.829 84.0982 110.451 85.595C111.074 87.0902 111.385 88.6492 111.385 90.2688C111.385 91.8882 111.074 93.4467 110.451 94.9426C109.829 96.4386 108.941 97.7587 107.792 98.9045C106.641 100.05 105.315 100.933 103.812 101.552C102.309 102.172 100.744 102.482 99.1172 102.482C97.4905 102.482 95.9263 102.172 94.4229 101.552C92.9202 100.933 91.5934 100.05 90.4424 98.9045C89.2925 97.7588 88.4062 96.4384 87.7842 94.9426C87.1612 93.4467 86.8506 91.8882 86.8506 90.2688C86.8506 88.6492 87.1612 87.0902 87.7842 85.595C88.4062 84.0984 89.2925 82.7779 90.4424 81.6331C91.5934 80.4872 92.9202 79.6049 94.4229 78.9846C95.9263 78.3653 97.4906 78.0559 99.1172 78.0559ZM53.79 42.8811C52.2566 42.7593 50.4164 42.7591 48.2695 42.8196V61.0784H54.2197C55.446 61.0784 56.4894 60.8348 57.3477 60.2844C58.2068 59.7349 58.8202 59.0636 59.3105 58.2083C59.7401 57.3537 60.0465 56.316 60.2305 55.2161C60.4145 54.0557 60.4766 52.9566 60.4766 51.7971C60.4766 49.6596 60.292 47.9494 59.8008 46.6672C59.3105 45.4459 58.575 44.5301 57.5938 43.9202C56.6122 43.3093 55.3235 43.0029 53.79 42.8811Z" fill="white"/>
</svg>
